# xmcd CD database file
#
# Track frame offsets:
#	150
#	25345
#	37412
#	58557
#	82320
#	88202
#	106117
#	109262
#	129062
#	135652
#	156010
#	161435
#	182202
#	208312
#	210120
#	231060
#	234010
#	254470
#	257015
#	273305
#
# Disc length: 4309 seconds
#
# Revision: 1
# Processed by: cddbd v1.5PL3 Copyright (c) Steve Scherf et al.
# Submitted via: CDex 1.50beta8
#
DISCID=1210d314
DTITLE=Nitro Microphone Underground - Nitro Microphone Underground
DYEAR=2000
DGENRE=Hip Hop
TTITLE0=Nitro Microphone Underground
TTITLE1=BAMBU
TTITLE2=Mischief
TTITLE3=3 On Tree(三銃shit)
TTITLE4=Pyramid
TTITLE5=Asama131
TTITLE6=となりのお姉さんが...
TTITLE7=Jus' Playin'
TTITLE8=S.K.I.T.
TTITLE9=Requiem
TTITLE10=Infinity
TTITLE11=Hardcore
TTITLE12=Unstoppable(Live at 江戸城ホール）
TTITLE13=ピコピコポン
TTITLE14=クチずさんでごらんよ
TTITLE15=Nice Dream
TTITLE16=ボクも
TTITLE17=SKIT
TTITLE18=45 Fingaz of Death
TTITLE19=さきっちょだけですけれども
EXTD=YEAR: 2000
EXTT0=
EXTT1=
EXTT2=
EXTT3=
EXTT4=
EXTT5=
EXTT6=
EXTT7=
EXTT8=
EXTT9=
EXTT10=
EXTT11=
EXTT12=
EXTT13=
EXTT14=
EXTT15=
EXTT16=
EXTT17=
EXTT18=
EXTT19=
PLAYORDER=
